<svg xmlns="http://www.w3.org/2000/svg" viewBox="0 0 887.24 394.36"><defs><style>.cls-1{fill:#fff;}.cls-2{fill:#ee2e2d;}</style></defs><title>Asset 1</title><g id="Layer_2" data-name="Layer 2"><g id="Layer_2-2" data-name="Layer 2"><path class="cls-1" d="M87.8,121.39c4.89-23.17,15.31-53.57,22.32-65.9,5.74-10,11.91-14.46,23.39-16,16.16-2.12,52.3-3.61,118-3.61,65.9,0,102.05,1.06,118,3.61,11.48,1.7,17.43,6,23.38,16,7.23,12.12,17,42.73,22.54,65.9,1.91,7.87-1.49,10.84-9.57,10.42-35.29-2.34-77.38-4.47-154.34-4.47-76.75,0-118.84,2.13-154.13,4.47C89.08,132.23,85.89,129.26,87.8,121.39ZM98.22,278.5C78.87,278.5,64,263.62,64,244.27,64,224.71,78.87,210,98.22,210s34.23,14.67,34.23,34.23C132.45,263.62,117.56,278.5,98.22,278.5Zm97.15-8.5c-14.66,0-24.66-10-24.66-24.67,0-14.45,10-24.44,24.66-24.44H307.84c14.45,0,24.45,10,24.45,24.44,0,14.67-10,24.67-24.45,24.67Zm209.41,8.5c-19.35,0-34-14.88-34-34.23,0-19.56,14.66-34.23,34-34.23,19.56,0,34.23,14.67,34.23,34.23C439,263.62,424.34,278.5,404.78,278.5ZM251.5,335.9c71.43,0,166.46-3.61,206.64-8.29,28.92-3.19,44.86-19.14,44.86-46.35V243.85c0-35.93-7.23-55.92-26.79-81.43l-18.07-23.17C450.49,101,436.24,60.8,429,45.07,417.54,21.05,395.64,6.8,367.36,3c-14.24-1.92-60.8-3-115.86-3C196.65,0,150.09,1.28,135.85,3,107.57,6.38,85.46,21.05,74.2,45.07,66.75,60.8,52.72,101,44.86,139.25L27,162.42C7.23,187.93,0,207.92,0,243.85v37.41c0,27.21,16.16,43.16,44.86,46.35C85.25,332.29,180.07,335.9,251.5,335.9ZM28.28,394.36H53.15A27.81,27.81,0,0,0,81.42,366.3V313.36L0,274.67V366.3A27.82,27.82,0,0,0,28.28,394.36Zm421.57,0h25.09A27.64,27.64,0,0,0,503,366.3V274.67l-81.21,38.69V366.3A27.64,27.64,0,0,0,449.85,394.36Z"/><path class="cls-2" d="M792,381.11V44.9c0-29-15.91-44.9-44.72-44.9H604.77c-29.17,0-44.55,15.91-44.55,44.9V381.11ZM610.6,184.54c-12.9,0-20.68-7.07-20.68-18.91V49c0-11.84,7.78-19.09,20.68-19.09H741.41c12.9,0,20.86,7.25,20.86,19.09V165.63c0,11.84-8,18.91-20.86,18.91ZM532.29,379.87a14.23,14.23,0,0,0,14,14.49H805.57a14.52,14.52,0,0,0,14.32-14.49,14.31,14.31,0,0,0-14.32-14H546.26A14,14,0,0,0,532.29,379.87ZM778.35,232.8h15.38c8.13,0,13.26,4.6,13.26,13.43v58.51c0,25.1,15.2,40.31,40.3,40.31,24.93,0,40-15.21,40-40.31V88.21a47.58,47.58,0,0,0-8-26.87L855.07,22.1c-9-14.32-30.05-1.42-21,13.08l20.68,33.58a9.1,9.1,0,0,1-.35,10.08L831.2,111.19c-7.6,10.42-6.54,20.32,1.42,29.69l29.7,34.47V304.74c0,9.55-5.66,15.38-15,15.38-9.72,0-15.38-5.83-15.38-15.38V246.23c0-24.39-14.49-38.35-38.18-38.35H778.35Z"/></g></g></svg>